<svg id="Layer_1" data-name="Layer 1" xmlns="http://www.w3.org/2000/svg" viewBox="0 0 553.59 296.99"><defs><style>.cls-1{fill:#5d5d5d;}.cls-2{fill:#fff;}</style></defs><g id="Outline"><path class="cls-1" d="M78.72,233.42c-19.71,0-35.84-1.9-47.94-5.65-13.2-4.09-19.9-10.67-19.9-19.56,0-3.9,2.1-9.49,6.41-17.1s9.55-12.84,15.58-15.54a48.92,48.92,0,0,1,14.91-3.52c.83-.05,1.59-.08,2.28-.08,6.26,0,7.57,2.53,7.57,4.64a4.36,4.36,0,0,1-1.37,3.11,7.56,7.56,0,0,1-1.95,1.4l-1.34.66c-2.49,1-4.34,1.72-5.76,2.23l-.1,0c3.83.62,11.94,1.29,29.1,1.29,19.86,0,36.34-.73,49-2.16a134.54,134.54,0,0,0,33.2-7.67,92.68,92.68,0,0,0,23.94-13.63,42.06,42.06,0,0,0-10.43-10.79,70.56,70.56,0,0,0-18.05-9.54,119,119,0,0,0-21.28-5.46,180.67,180.67,0,0,1-64-22.26c-2.06-1.09-4.16-3.28-6.36-6.63a18.32,18.32,0,0,1-3.32-10,96.31,96.31,0,0,1,5.08-30.45C67.34,56.55,71.8,48.4,77.2,42.54c8.53-9.58,24-18,45.82-25.06C144.67,10.51,169.36,7,196.4,7c16.24,0,29,1.28,38,3.79,10.15,2.85,15.3,7.63,15.3,14.24,0,8.9-1.22,15.68-3.74,20.72s-5.37,8.54-8.54,10.36a115.18,115.18,0,0,1-14.19,6.29,141.83,141.83,0,0,0-18,7.57,136.26,136.26,0,0,0-13,7.52c-5.24,3.49-7.08,4.18-8.5,4.18a4.29,4.29,0,0,1-4.65-4.32c0-2.84,2.11-6.15,6.84-10.75a61.45,61.45,0,0,1,15.37-10.64c2-1.06,3.52-1.91,4.65-2.58-1.1-.08-2.51-.13-4.32-.13A276.22,276.22,0,0,0,145,58.67c-17.09,3.59-30.71,8.36-40.46,14.19C95.49,78.27,90.89,83.6,90.89,88.69c0,1.77.5,4,4.36,5.49,4.07,1.57,13.27,4.27,27.36,8a273,273,0,0,1,38.71,13.19c16.4,7,28.79,14.46,36.81,22.14,8.37,8,12.62,17.18,12.62,27.23a47.27,47.27,0,0,1-4.89,20.42,60.42,60.42,0,0,1-14.14,18.56,80.71,80.71,0,0,1-21.17,13.71,171,171,0,0,1-25.34,8,276.9,276.9,0,0,1-32.79,5.83A285.86,285.86,0,0,1,78.72,233.42Z" transform="translate(-10.88 -2.46)"/><path class="cls-1" d="M314.25,218.71c-5.4,0-9.36-1.89-11.77-5.62-2.18-3.37-3.24-8-3.24-14.24,0-6.57,1.6-15,4.87-25.44-11.44,12.5-20.35,21.84-26.57,27.83-8.57,8.27-15.64,12.29-21.63,12.29-3.43,0-7.07-2.35-11.44-7.38a64.24,64.24,0,0,1-10.27-17.27,56.53,56.53,0,0,1-4.5-22.13,51.46,51.46,0,0,1,1.62-13.94A35,35,0,0,1,237.69,141a152.38,152.38,0,0,1,14.17-14.86c17.12-15.55,34-27.24,50.1-34.8,16.49-7.73,29-11.48,38.2-11.48a12.11,12.11,0,0,1,8.6,3.76,25.38,25.38,0,0,1,5.4,7.67c1.38,3,2,5.23,2,6.92a7.73,7.73,0,0,1-3.77,7,37.09,37.09,0,0,1-5.73,2.61c.52,1.17,1.09,2.48,1.73,3.92,1.24,2.84,2.21,5.14,2.89,6.9a15.7,15.7,0,0,1,1.2,5.67c0,2.33-1,6.33-8.69,16.74-5.32,7.18-9.1,12.55-11.24,15.94a20.62,20.62,0,0,0-2.8,11.12c0,6.58,2.51,9.39,8.39,9.39,4.83,0,14.75-3.67,34.64-21.16l4.95-4.35V169.9l-.77.85C347.93,203,327.41,218.71,314.25,218.71Zm10.62-101.26c-23.32,11.06-40.46,20.67-51,28.61-11.46,8.62-17.28,17.43-17.28,26.21a15.58,15.58,0,0,0,1.49,7.36c1,1.86,1.93,1.86,2.39,1.86.11,0,1.27-.06,5.18-2a128.87,128.87,0,0,0,31.19-26.3C304.76,144.07,314.17,132.08,324.87,117.45Z" transform="translate(-10.88 -2.46)"/><path class="cls-1" d="M375.44,299.45c-5.53,0-10.47-4.14-14.69-12.31-3.88-7.53-5.85-16.93-5.85-27.95a112.79,112.79,0,0,1,5.32-33c3.37-11,8.58-25.21,15.51-42.33-5.17-7.18-7.79-14.46-7.79-21.66,0-6.46,1.75-11.54,5.18-15.11a42.88,42.88,0,0,1,12.47-8.46,165.67,165.67,0,0,1,10.86-15.18q5.19-6.33,14-16.81a694.24,694.24,0,0,1,40.78-83.5c4.45-7.76,7.57-12.85,9.53-15.56,2.48-3.43,5.32-5.16,8.44-5.16s5.66,1.94,7.65,5.78a26.52,26.52,0,0,1,2.51,12.24,63.69,63.69,0,0,1-1.85,15.79,80.83,80.83,0,0,1-5.2,14.31c-2.21,4.7-5.29,10.38-9.16,16.89s-6.19,10.44-7.08,12c-5.58,9.82-11.94,20.8-18.91,32.62l-16.63,28.26c-3.28,5.56-5.83,10-7.61,13.34,5.25,4.64,9.53,8.74,12.74,12.21A57.78,57.78,0,0,1,434,177.67a51.13,51.13,0,0,0,7.35-3.9,114.65,114.65,0,0,0,10.74-8.06c4.23-3.5,8.43-6.82,12.49-9.87l4.76-3.57V171l-.87.88c-6.7,6.69-11.87,11.63-15.36,14.68a72.85,72.85,0,0,1-13.19,8.75,188.12,188.12,0,0,1-1.53,24.52,89.25,89.25,0,0,1-6.91,23.27c-3.54,8-9.06,16.94-16.42,26.45s-14.57,16.81-21.68,21.91C385.89,296.83,380,299.45,375.44,299.45Zm17.68-101.36c-7.54,19-11.36,35.09-11.36,47.73A41.23,41.23,0,0,0,384.61,262c1.47,3.42,3.12,5.38,4.53,5.38.9,0,3.54-.64,8.69-6.65,4.12-4.8,7.78-12.1,10.88-21.71s4.69-21.72,4.7-35.89l0-.42c-1,.06-1.9.09-2.73.09s-1.66,0-2.37-.1a35,35,0,0,1-7.22-1.54,46.8,46.8,0,0,1-6.26-2.33C394.26,198.6,393.7,198.34,393.12,198.09Z" transform="translate(-10.88 -2.46)"/><path class="cls-1" d="M492.45,218.37c-10.86,0-19.59-4.28-25.95-12.72-6.17-8.18-9.29-19.41-9.29-33.38a66.09,66.09,0,0,1,8.59-33.33c5.59-9.77,14.81-20.19,27.39-30.95a106.69,106.69,0,0,1,26-16.85c8.7-3.83,16.64-5.77,23.6-5.77,5.89,0,10.69,1.42,14.29,4.23,3.81,3,5.74,7.4,5.74,13.13,0,7.65-2.85,15.31-8.46,22.77-5.43,7.21-13.76,14.43-24.76,21.45a246.05,246.05,0,0,1-38.33,19.3v2.17c0,5.8,1.38,10.32,4.11,13.41a13.1,13.1,0,0,0,10.46,4.51,39.31,39.31,0,0,0,15.77-3.6,89.37,89.37,0,0,0,16.91-9.87c5.72-4.18,12.8-9.87,21.06-16.91l4.91-4.19V169.5l-.69.83c-12.7,15.28-24.8,27.17-36,35.35C516.31,214.1,504.41,218.37,492.45,218.37Zm40.62-108.65c-.66,0-2.81.33-8.31,3.45a78.76,78.76,0,0,0-13.19,9.67,70.93,70.93,0,0,0-11.95,14,44.39,44.39,0,0,0-5.45,11.58,88.58,88.58,0,0,0,19.64-11.86c6.85-5.56,12-10.92,15.17-15.93,4.17-6.5,4.62-9.16,4.62-10a2.66,2.66,0,0,0-.1-.85h0C533.41,109.74,533.28,109.72,533.07,109.72Z" transform="translate(-10.88 -2.46)"/></g><path class="cls-2" d="M186.21,162.57a43.07,43.07,0,0,0-12.54-13.87,73,73,0,0,0-18.81-9.95,121.5,121.5,0,0,0-21.81-5.6,176.78,176.78,0,0,1-63-21.9c-1.67-.89-3.46-2.78-5.35-5.68a15.32,15.32,0,0,1-2.84-8.36,92.76,92.76,0,0,1,4.93-29.5q4.92-14.8,12.62-23.16,12.36-13.87,44.55-24.23T196.4,10q24.07,0,37.2,3.68T246.72,25q0,12.53-3.43,19.39t-7.35,9.11a115.84,115.84,0,0,1-13.79,6.1,141.84,141.84,0,0,0-18.31,7.69A139.57,139.57,0,0,0,190.55,75q-5.52,3.67-6.85,3.68c-1.12,0-1.67-.45-1.67-1.34,0-1.89,2-4.77,5.93-8.61A57.67,57.67,0,0,1,202.59,58.6q9.19-4.86,9.19-6.19,0-2.17-10.19-2.17a278.52,278.52,0,0,0-57.17,5.51Q118.17,61.27,103,70.3T87.91,88.69q0,5.85,6.27,8.27t27.67,8.11a268.68,268.68,0,0,1,38.28,13q24.24,10.36,35.94,21.56t11.7,25.08a44,44,0,0,1-4.6,19.14,57.11,57.11,0,0,1-13.45,17.63,77.56,77.56,0,0,1-20.4,13.21,167.45,167.45,0,0,1-24.82,7.85,269,269,0,0,1-32.43,5.77,281.82,281.82,0,0,1-33.35,2.09q-29.25,0-47.06-5.52t-17.8-16.71q0-5,6-15.63t14.21-14.3A45.55,45.55,0,0,1,48,175q6.69-.42,6.69,1.58a1.47,1.47,0,0,1-.5,1,4.68,4.68,0,0,1-1.17.83l-1.34.67q-3.35,1.33-5.43,2.09a19.45,19.45,0,0,0-3.35,1.5,2.36,2.36,0,0,0-1.25,2.09q0,3.51,34.6,3.52,30.09,0,49.32-2.18a136.5,136.5,0,0,0,33.93-7.86A94.69,94.69,0,0,0,186.21,162.57Z" transform="translate(-10.88 -2.46)"/><path class="cls-2" d="M253.91,128.3Q279.32,105.23,303.22,94t36.94-11.2a9.22,9.22,0,0,1,6.52,2.93,22.22,22.22,0,0,1,4.77,6.77,15.74,15.74,0,0,1,1.75,5.68,4.8,4.8,0,0,1-2.34,4.43,46.56,46.56,0,0,1-8.19,3.43c.78,1.78,1.78,4.07,3,6.85s2.17,5,2.84,6.77a13,13,0,0,1,1,4.6q0,4-8.11,15t-11.37,16.13a23.45,23.45,0,0,0-3.26,12.71q0,12.38,11.37,12.37,11.7,0,36.61-21.9v10.2q-42.3,47-60.52,47-6.51,0-9.27-4.26t-2.76-12.62q0-13.22,9.53-38.28-24.42,27.08-36.28,38.53t-19.56,11.45q-3.67,0-9.19-6.35a61.29,61.29,0,0,1-9.78-16.47,53.5,53.5,0,0,1-4.26-21,48.67,48.67,0,0,1,1.5-13.12A31.81,31.81,0,0,1,240,142.85,149.61,149.61,0,0,1,253.91,128.3ZM334,109.92Q290.51,129.81,272,143.68t-18.47,28.59a18.37,18.37,0,0,0,1.84,8.77q1.84,3.44,5,3.43,1.83,0,6.52-2.34a131.28,131.28,0,0,0,32.09-27Q313.59,138.51,334,109.92Z" transform="translate(-10.88 -2.46)"/><path class="cls-2" d="M466.37,158.23v11.53q-10,10-15.21,14.54A72.77,72.77,0,0,1,437,193.5a190.46,190.46,0,0,1-1.5,25.91,85.81,85.81,0,0,1-6.69,22.48q-5.17,11.79-16.05,25.83Q402,281.6,391.65,289t-16.21,7.44q-6.53,0-12-10.7t-5.52-26.58a109.22,109.22,0,0,1,5.19-32.09q5.18-16.89,16-43.63-8.19-10.69-8.19-21.23,0-8.53,4.35-13A40.36,40.36,0,0,1,387.64,141a163.17,163.17,0,0,1,11.12-15.63q5.26-6.43,14.29-17.14a687.88,687.88,0,0,1,40.79-83.58q6.51-11.37,9.36-15.29t6-3.93q2.83,0,5,4.18a23.51,23.51,0,0,1,2.17,10.86,60.65,60.65,0,0,1-1.75,15.05,77.17,77.17,0,0,1-5,13.79q-3.25,6.93-9,16.63T453.5,78q-8.36,14.72-18.89,32.59T418,138.83q-6.11,10.38-8.78,15.55a190,190,0,0,1,14.3,13.54,56.1,56.1,0,0,1,9.11,13.54A56.94,56.94,0,0,0,443,176.28,116.14,116.14,0,0,0,454,168Q460.36,162.74,466.37,158.23Zm-50,44.79-.33-3.51a40.81,40.81,0,0,1-7.53.26,32.48,32.48,0,0,1-6.6-1.42,44.39,44.39,0,0,1-5.85-2.18c-1.39-.67-2.92-1.33-4.6-2q-12.71,31.08-12.7,51.65a44,44,0,0,0,3.09,17.39q3.09,7.19,7.27,7.18,4.35,0,10.95-7.69T411.54,240Q416.4,224.93,416.39,203Z" transform="translate(-10.88 -2.46)"/><path class="cls-2" d="M488.27,164.24v4.18q0,9.87,4.85,15.38a16.08,16.08,0,0,0,12.7,5.52,42.09,42.09,0,0,0,17-3.85,93.09,93.09,0,0,0,17.47-10.19q8.68-6.36,21.23-17.05v10.19q-18.9,22.74-35.44,34.86t-33.6,12.11q-14.88,0-23.57-11.53t-8.69-31.59a62.93,62.93,0,0,1,8.19-31.85q8.19-14.3,26.75-30.17a103.23,103.23,0,0,1,25.24-16.38q12.54-5.52,22.4-5.52,7.85,0,12.45,3.59t4.6,10.79q0,10.53-7.86,21t-24,20.73Q511.85,154.71,488.27,164.24Zm1.67-10.86a95.22,95.22,0,0,0,25.75-14.55q10.69-8.69,15.79-16.63t5.1-11.62q0-3.84-3.51-3.84-3,0-9.78,3.84a81.11,81.11,0,0,0-13.7,10,74.05,74.05,0,0,0-12.46,14.55A47,47,0,0,0,489.94,153.38Z" transform="translate(-10.88 -2.46)"/></svg>